<svg xmlns="http://www.w3.org/2000/svg"><symbol id="24-hours" viewBox="0 0 480 480"><path d="M472 432h-24V280a8 8 0 0 0-14.552-4.584l-112 160A7.999 7.999 0 0 0 328 448h104v24a8 8 0 0 0 16 0v-24h24a8 8 0 0 0 0-16zm-40 0h-88.64L432 305.376V432z"/><path d="M328 464h-94.712l88.056-103.688c.2-.238.387-.486.56-.744 16.566-24.518 11.048-57.713-12.56-75.552-28.705-20.625-68.695-14.074-89.319 14.631A63.997 63.997 0 0 0 208 336a8 8 0 0 0 16 0c-.003-26.51 21.486-48.002 47.995-48.005A47.999 47.999 0 0 1 300 297.008c16.537 12.671 20.388 36.007 8.8 53.32l-98.896 116.496A8 8 0 0 0 216 480h112a8 8 0 0 0 0-16z"/><path d="M216.176 424.152a8 8 0 0 0-7.693-8.296h-.003C104.11 411.982 20.341 328.363 16.28 224H48a8 8 0 0 0 0-16H16.28C20.283 103.821 103.82 20.287 208 16.288V40a8 8 0 0 0 16 0V16.288c102.754 3.974 185.686 85.34 191.616 188l-31.2-31.2a8 8 0 0 0-11.312 11.312l44.656 44.656a7.863 7.863 0 0 0 3.152 2.296c.313.094.631.172.952.232a7.914 7.914 0 0 0 1.696.408h.456a7.708 7.708 0 0 0 1.792-.352c.329-.04.655-.101.976-.184a7.88 7.88 0 0 0 2.888-1.808l45.264-45.248a8 8 0 0 0-11.312-11.312l-31.976 31.952C425.933 90.37 331.38.281 216.568.112 216.368.104 216.2 0 216 0s-.368.104-.568.112C96.582.275.275 96.582.112 215.432c0 .2-.112.368-.112.568s.104.368.112.568c.199 115.917 91.939 210.97 207.776 215.28h.296a8 8 0 0 0 7.992-7.696z"/><path d="M323.48 108.52a8 8 0 0 0-11.312 0L226.2 194.48a25.055 25.055 0 0 0-20.408 0l-40.704-40.704a8 8 0 0 0-11.312 11.312l40.624 40.624c-5.704 11.94-.648 26.244 11.293 31.947a23.96 23.96 0 0 0 27.275-4.683 23.737 23.737 0 0 0 4.624-27.256l85.888-85.888a8 8 0 0 0 0-11.312zM221.658 221.654l-.002.002a8.185 8.185 0 0 1-11.312 0 8 8 0 1 1 11.314-.002z"/></symbol><symbol id="battery" viewBox="0 0 24 24"><path d="M19 8v8H2V8h17zm2-2H0v12h21V6zm1 9h.75c.69 0 1.25-.56 1.25-1.25v-3.5C24 9.56 23.44 9 22.75 9H22v6zM5 10.512L11.592 15v-2.61L16 13.686 9.599 9v2.843L5 10.512z"/></symbol><symbol id="building-1"><path d="M24 24H0V6h6v6l6-4v4.008L18 8v4.017L24 8v16zM4 8H2v14h20V12l-6 4v-4l-6 4v-4l-6 4V8zm11 12h-2v-3h2v3zm-4 0H9v-3h2v3zm-4 0H5v-3h2v3zm12 0h-2v-3h2v3zM3 5H2c.198-2.182 1.785-4 3.5-4 .246 0 .478.059.683.164a2 2 0 0 1 3.634 0 1.5 1.5 0 1 1 0 2.672A2 2 0 0 1 8 5C5.655 5 4.278 2.049 3 5z"/></symbol><symbol id="building"><path d="M21 22h2v2H1v-2h2V0h18v22zm-10-3H9v4h2v-4zm4 0h-2v4h2v-4zm4-17H5v20h2v-5h10v5h2V2zM7 13h2v2H7v-2zm4 0h2v2h-2v-2zm4 0h2v2h-2v-2zm-8-3h2v2H7v-2zm4 0h2v2h-2v-2zm4 0h2v2h-2v-2zM7 7h2v2H7V7zm4 0h2v2h-2V7zm4 0h2v2h-2V7zM7 4h2v2H7V4zm4 0h2v2h-2V4zm4 0h2v2h-2V4z"/></symbol><symbol id="car" viewBox="0 0 24 24"><path d="M7 13.5a1.5 1.5 0 1 0-3.001.001A1.5 1.5 0 0 0 7 13.5zm9 1a.5.5 0 0 0-.5-.5h-7a.5.5 0 0 0 0 1h7a.5.5 0 0 0 .5-.5zm4-1a1.5 1.5 0 1 0-3.001.001A1.5 1.5 0 0 0 20 13.5zM2.702 7H.5a.5.5 0 0 0-.5.5v.511C0 8.804.926 9 1.616 9l1.086-2zm19.318 3.168c-.761-1.413-1.699-3.17-2.684-4.812-.786-1.312-1.37-1.938-2.751-2.187-1.395-.25-2.681-.347-4.585-.347s-3.19.097-4.585.347c-1.381.248-1.965.875-2.751 2.187-.981 1.637-1.913 3.382-2.684 4.812C1.293 11.441 1 12.58 1 13.974c0 1.318.42 2.415 1 3.817V20a1 1 0 0 0 1 1h1.5a1 1 0 0 0 1-1v-1h13v1a1 1 0 0 0 1 1H21a1 1 0 0 0 1-1v-2.209c.58-1.403 1-2.499 1-3.817 0-1.394-.293-2.533-.98-3.806zM6.379 6.384c.67-1.117.852-1.149 1.39-1.246 1.268-.227 2.455-.316 4.231-.316s2.963.088 4.231.316c.538.097.72.129 1.39 1.246.408.681.81 1.388 1.195 2.081C17.36 8.685 14.796 9 12 9c-3.048 0-5.517-.336-6.805-.555a74.08 74.08 0 0 1 1.184-2.061zM17.974 17H6.026A3.026 3.026 0 0 1 3 13.974c0-1.641.506-2.421 1.184-3.678C5.225 10.501 8.151 11 12 11c3.481 0 6.561-.455 7.834-.672.664 1.231 1.166 2.01 1.166 3.646A3.026 3.026 0 0 1 17.974 17zM23.5 7a.5.5 0 0 1 .5.5v.511c0 .793-.926.989-1.616.989l-1.086-2H23.5z"/></symbol><symbol id="chart" viewBox="0 0 24 24"><path d="M24 3.875l-6 1.221 1.716 1.708-5.351 5.358-3.001-3.002-7.336 7.242 1.41 1.418 5.922-5.834 2.991 2.993 6.781-6.762 1.667 1.66L24 3.875zM24 20v2H0V2h2v18h22z"/></symbol><symbol id="coin" viewBox="0 0 24 24"><path d="M17 12a6 6 0 0 0 0 12 6 6 0 0 0 0-12zm.5 8.474V21H17v-.499a3.459 3.459 0 0 1-1.5-.363l.228-.822c.478.186 1.114.383 1.612.27.574-.13.692-.721.057-1.005-.465-.217-1.889-.402-1.889-1.622 0-.681.52-1.292 1.492-1.425V15h.5v.509c.362.01.768.073 1.221.21l-.181.824c-.384-.135-.808-.257-1.222-.232-.744.043-.81.688-.29.958.856.402 1.972.7 1.972 1.773.001.858-.672 1.315-1.5 1.432zm1.624-10.179c1.132-.223 2.162-.626 2.876-1.197v.652c0 .499-.386.955-1.007 1.328a7.946 7.946 0 0 0-1.869-.783zM17 4.5c2.673 0 5-1.007 5-2.25S19.673 0 17 0c-2.672 0-5 1.007-5 2.25s2.328 2.25 5 2.25zm.093-2.009c-.299-.09-1.214-.166-1.214-.675 0-.284.334-.537.958-.593V1h.321v.211c.234.005.494.03.784.09l-.116.342a3.207 3.207 0 0 0-.708-.099l-.072.001c-.482.02-.521.287-.188.399.547.169 1.267.292 1.267.74 0 .357-.434.548-.967.596v.22h-.321v-.208a3.23 3.23 0 0 1-.962-.152l.147-.343c.244.063.552.126.828.126l.208-.014c.369-.053.443-.3.035-.418zM6 15.5c1.445 0 2.775-.301 3.705-.768a8.029 8.029 0 0 1 1.198-1.899C10.452 11.79 8.364 11 6 11c-2.672 0-5 1.007-5 2.25s2.328 2.25 5 2.25zm.093-2.009c-.299-.09-1.214-.166-1.214-.675 0-.284.335-.537.958-.593V12h.321v.211c.234.005.494.03.784.09l-.117.342a3.19 3.19 0 0 0-.707-.099l-.072.001c-.482.02-.52.287-.188.399.547.169 1.267.292 1.267.74 0 .357-.434.548-.967.596v.22h-.321v-.208a3.225 3.225 0 0 1-.962-.152l.147-.343c.244.063.552.126.828.126l.208-.014c.368-.053.443-.3.035-.418zm4.003 8.531C9.177 22.612 7.656 23 6 23c-2.672 0-5-1.007-5-2.25v-.652c1.146.918 3.109 1.402 5 1.402 1.236 0 2.499-.211 3.549-.611.153.394.336.773.547 1.133zM1 18.25v-.651C2.146 18.516 4.109 19 6 19a10.59 10.59 0 0 0 3.028-.435c.033.469.107.926.218 1.37-.888.347-2.024.565-3.246.565-2.672 0-5-1.007-5-2.25zm0-2.5v-.652c1.146.918 3.109 1.402 5 1.402 1.127 0 2.275-.176 3.266-.509a7.923 7.923 0 0 0-.241 1.526C8.171 17.815 7.122 18 6 18c-2.672 0-5-1.007-5-2.25zm11-11v-.652c1.146.918 3.109 1.402 5 1.402 1.892 0 3.854-.484 5-1.402v.652C22 5.993 19.673 7 17 7c-2.672 0-5-1.007-5-2.25zm0 5v-.652c.713.571 1.744.974 2.876 1.197a7.939 7.939 0 0 0-1.868.783C12.386 10.705 12 10.249 12 9.75zm0-2.5v-.651C13.146 7.516 15.109 8 17 8c1.892 0 3.854-.484 5-1.401v.651c0 1.243-2.327 2.25-5 2.25-2.672 0-5-1.007-5-2.25z"/></symbol><symbol id="computer" viewBox="0 0 389.981 389.981"><g fill="#FFF"><path d="M145.407 248.988l-2.775 26.209a7.497 7.497 0 0 0 7.459 8.289h79.301a7.506 7.506 0 0 0 5.576-2.483 7.505 7.505 0 0 0 1.883-5.806l-2.775-26.209h98.777c15.374 0 27.881-12.507 27.881-27.881V27.881C360.733 12.507 348.225 0 332.852 0H40.63C25.256 0 12.749 12.507 12.749 27.881v193.226c0 15.374 12.507 27.881 27.881 27.881h104.777zm75.648 19.499h-62.629l2.064-19.499h58.5l2.065 19.499zM40.63 15h292.222c7.103 0 12.881 5.778 12.881 12.881V197.99H27.749V27.881C27.749 20.778 33.527 15 40.63 15zM27.749 221.107v-8.117h317.983v8.117c0 7.103-5.778 12.881-12.881 12.881H40.63c-7.103 0-12.881-5.778-12.881-12.881zM332.645 333.876a7.5 7.5 0 0 0 .244-7.352l-14.813-28.499a7.5 7.5 0 0 0-6.655-4.041H62.061a7.501 7.501 0 0 0-6.655 4.041l-14.813 28.499a7.502 7.502 0 0 0 6.655 10.959h278.986a7.498 7.498 0 0 0 6.411-3.607zM59.599 322.484l7.016-13.499h240.251l7.017 13.499H59.599zM345.733 350.982h-12c-17.368 0-31.499 14.13-31.499 31.499a7.5 7.5 0 0 0 7.5 7.5h59.997a7.5 7.5 0 0 0 7.5-7.5c.001-17.368-14.129-31.499-31.498-31.499zm-26.693 23.999c2.735-5.337 8.295-8.999 14.693-8.999h12c6.398 0 11.958 3.662 14.694 8.999H319.04z"/></g></symbol><symbol id="currency" viewBox="0 0 512 512"><g fill="#FFF"><path d="M362.794 370.325c-8.931-6.055-19.95-9.096-30.604-12.036-2.325-.642-4.642-1.281-6.912-1.948-13.034-3.832-21.392-11.394-22.359-20.232-.782-7.148 3.521-14.043 11.506-18.443 1.688-.929 3.567-1.623 5.579-2.114v15.866c0 5.89 4.775 10.667 10.667 10.667 5.89 0 10.667-4.777 10.667-10.667v-15.086c6.227 1.535 12.293 4.01 17.261 7.014 5.04 3.052 11.598 1.439 14.648-3.602 3.05-5.04 1.438-11.598-3.602-14.649-7.893-4.778-17.888-8.703-28.306-10.594v-7.668c0-5.89-4.777-10.667-10.667-10.667-5.891 0-10.667 4.777-10.667 10.667v7.022c-5.596.789-10.979 2.429-15.873 5.125-15.552 8.57-24.142 23.684-22.419 39.448 1.934 17.691 15.971 32.038 37.55 38.38.243.071.496.141.741.212v50.224c-8.827-1.471-16.131-5.21-18.471-9.715-2.713-5.229-9.15-7.268-14.379-4.556-5.229 2.713-7.269 9.151-4.557 14.381 6.487 12.504 21.537 19.548 37.406 21.346v11.135c0 5.89 4.775 10.667 10.667 10.667 5.89 0 10.667-4.777 10.667-10.667V447.93a58.487 58.487 0 0 0 6.442-1.615c16.731-5.273 29.176-19.83 31.701-37.085 2.3-15.715-3.938-30.259-16.686-38.905zm-4.423 35.817c-1.348 9.214-8.022 16.996-17.004 19.826-.009.003-.019.005-.029.01v-42.602c3.587 1.325 6.848 2.821 9.484 4.607 8.38 5.684 8.072 14.592 7.549 18.159z"/><path d="M330.671 234.668c-3.589 0-7.15.138-10.671.406V50.667c0-11.136-7.804-26.849-44.975-38.466C249.847 4.334 216.573 0 181.333 0S112.82 4.334 87.641 12.201c-37.173 11.617-44.976 27.33-44.976 38.466v322.669c0 11.135 7.803 26.848 44.976 38.464 25.179 7.868 58.453 12.202 93.692 12.202 6.717 0 13.434-.169 20.065-.489C221.55 475.243 271.895 512 330.67 512c76.461 0 138.666-62.204 138.666-138.664.001-76.462-62.204-138.668-138.665-138.668zM94.004 32.563c23.175-7.242 54.188-11.23 87.329-11.23 33.139 0 64.154 3.988 87.329 11.23 24.492 7.654 30.005 15.84 30.005 18.104 0 2.265-5.513 10.45-30.005 18.105-23.175 7.241-54.188 11.229-87.329 11.229s-64.155-3.988-87.329-11.23C69.51 61.117 63.998 52.932 63.998 50.667c0-2.263 5.512-10.449 30.006-18.104zM63.998 79.256c6.111 3.471 13.849 6.817 23.643 9.877 25.179 7.868 58.453 12.201 93.692 12.201s68.514-4.334 93.692-12.2c9.794-3.06 17.531-6.406 23.642-9.877v25.191c0 2.263-5.513 10.449-30.005 18.104-23.176 7.241-54.188 11.229-87.329 11.229-15.38 0-30.396-.866-44.631-2.572-5.846-.707-11.16 3.472-11.86 9.321-.701 5.849 3.472 11.16 9.321 11.86 15.074 1.807 30.944 2.724 47.171 2.724 35.24 0 68.514-4.334 93.691-12.201 9.794-3.06 17.531-6.406 23.642-9.876v78.965c0 2.265-5.513 10.45-30.005 18.105-23.175 7.242-54.188 11.229-87.329 11.229-33.141 0-64.156-3.987-87.329-11.229-24.494-7.654-30.007-15.84-30.007-18.105v-25.187c6.111 3.47 13.849 6.817 23.643 9.877 25.179 7.868 58.453 12.201 93.692 12.201 20.994 0 41.099-1.507 59.757-4.48 5.819-.926 9.784-6.394 8.857-12.211-.927-5.819-6.409-9.781-12.212-8.856-17.305 2.756-36.808 4.213-56.402 4.213-33.139 0-64.155-3.988-87.329-11.23-24.494-7.654-30.007-15.839-30.007-18.103v-78.97zm117.335 323.413c-33.139 0-64.155-3.988-87.329-11.23-24.494-7.654-30.007-15.839-30.007-18.103v-25.19c6.111 3.47 13.849 6.817 23.643 9.877 25.178 7.868 58.453 12.202 93.692 12.202 3.569 0 7.144-.05 10.706-.141a140.907 140.907 0 0 0-.039 3.252c0 1.214.017 2.422.048 3.629.01.375.029.752.043 1.129.028.83.055 1.661.098 2.486.023.455.059.91.086 1.363.046.743.09 1.489.146 2.229.039.502.09 1.003.134 1.503.062.69.119 1.381.191 2.068.057.542.124 1.083.187 1.622.074.639.145 1.279.227 1.916.076.59.163 1.179.247 1.766.082.577.162 1.156.252 1.731.101.644.211 1.286.321 1.929.086.51.172 1.021.263 1.53.128.703.267 1.404.405 2.106.085.433.17.867.259 1.298.053.261.101.526.158.789-4.553.159-9.142.239-13.731.239zm22.944-86.368c-.004.011-.01.019-.014.03-.375.833-.74 1.669-1.1 2.51-.102.239-.208.476-.308.716-.166.394-.324.79-.486 1.186a137.467 137.467 0 0 0-8.172 27.934c-4.273.138-8.573.215-12.865.215-33.141 0-64.155-3.988-87.329-11.23-24.494-7.654-30.007-15.84-30.007-18.104V240.59h.001c6.111 3.47 13.849 6.817 23.643 9.877 25.178 7.867 58.452 12.201 93.692 12.201 28.082 0 54.901-2.759 77.383-7.858a139.174 139.174 0 0 0-33.529 28.512 138.536 138.536 0 0 0-7.872 10.142c-11.6 1.092-23.705 1.649-35.982 1.649-15.38 0-30.396-.866-44.631-2.572-5.846-.702-11.16 3.471-11.86 9.321-.701 5.849 3.472 11.16 9.321 11.86 15.074 1.807 30.944 2.724 47.171 2.724 7.819 0 15.561-.241 23.183-.664-.079.174-.16.346-.239.519zm126.394 174.366c-52.551 0-97.143-34.724-112.037-82.43-.181-.58-.35-1.164-.522-1.746a120.695 120.695 0 0 1-1.339-4.933c-.135-.548-.275-1.094-.403-1.647-.259-1.12-.501-2.244-.729-3.373-.093-.461-.179-.924-.267-1.387a113.69 113.69 0 0 1-.517-2.95c-.05-.308-.106-.614-.153-.923a113.807 113.807 0 0 1-.64-4.878 119.059 119.059 0 0 1-.355-3.677l-.028-.322a117.942 117.942 0 0 1-.27-5.003 116.855 116.855 0 0 1-.078-4.062c0-1.627.044-3.244.109-4.855.011-.263.018-.529.03-.792a119.302 119.302 0 0 1 .411-5.695c.122-1.278.266-2.55.427-3.815.089-.685.188-1.365.288-2.046.091-.625.193-1.247.293-1.869.249-1.514.517-3.02.825-4.513l.012-.054c8.794-42.823 40.993-77.207 82.587-89.156.171-.048.339-.098.509-.146.962-.271 1.932-.53 2.905-.779a121.179 121.179 0 0 1 9.092-1.929 117.666 117.666 0 0 1 19.852-1.688c64.696 0 117.332 52.637 117.332 117.335-.002 64.698-52.638 117.333-117.334 117.333z"/><path d="M96.347 145.404c1.653.436 3.345.86 5.068 1.269.83.198 1.661.291 2.478.291 4.826 0 9.202-3.299 10.368-8.201 1.363-5.73-2.177-11.482-7.908-12.845-1.552-.369-3.075-.75-4.564-1.142-5.701-1.504-11.534 1.897-13.035 7.593-1.504 5.697 1.896 11.533 7.593 13.035zM269.65 197.847a10.69 10.69 0 0 0 3.05-.447 178.411 178.411 0 0 0 6.284-2c5.579-1.891 8.569-7.948 6.677-13.528-1.891-5.579-7.948-8.568-13.528-6.677-1.821.618-3.679 1.21-5.525 1.758-5.646 1.682-8.859 7.622-7.178 13.268a10.673 10.673 0 0 0 10.22 7.626zM106.346 287.25c-1.554-.369-3.081-.75-4.572-1.141-5.691-1.491-11.53 1.911-13.025 7.611-1.494 5.697 1.913 11.529 7.611 13.024 1.652.433 3.341.854 5.061 1.263.828.196 1.657.29 2.471.29 4.829 0 9.205-3.302 10.369-8.206 1.361-5.732-2.183-11.482-7.915-12.841z"/></g></symbol><symbol id="database" viewBox="0 0 24 24"><path d="M1 3.488C1 1.562 5.656 0 11 0c5.345 0 10 1.562 10 3.488s-4.655 3.487-10 3.487c-5.344 0-10-1.561-10-3.487zm10 14.823c.34 0 .678-.007 1.011-.019a6.454 6.454 0 0 1 1.342-3.745c-.839.067-1.643.1-2.353.1-3.006 0-7.588-.523-10-2.256v2.434c0 1.925 4.656 3.486 10 3.486zm0-5.665c5.345 0 10-1.562 10-3.487v-2.44c-2.418 1.738-7.005 2.256-10 2.256-3.006 0-7.588-.523-10-2.256v2.44c0 1.926 4.656 3.487 10 3.487zm1.254 7.635c-.438.02-.861.03-1.254.03-2.995 0-7.582-.518-10-2.256v2.458C1 22.438 5.656 24 11 24c1.284 0 2.526-.092 3.676-.256a6.507 6.507 0 0 1-2.422-3.463zM18.5 14c-2.483 0-4.5 2.015-4.5 4.5s2.017 4.5 4.5 4.5 4.5-2.015 4.5-4.5-2.017-4.5-4.5-4.5zm-.563 6.55l-1.84-1.778.736-.758 1.089 1.05 2.43-2.439.751.744-3.166 3.181z"/></symbol><symbol id="diagram" viewBox="0 0 480.006 480.006"><path fill="#FFF" d="M40.003 48.006h104v16h-104zM40.003 80.006h104v16h-104zM40.003 112.006h72v16h-72zM40.003 144.006h72v16h-72zM.003 464.006h480v16h-480zM463.163 68.43l-32-64a8 8 0 0 0-10.73-3.587l-.006.003-64 32a8.004 8.004 0 0 0 7.152 14.32l46.352-23.16-12.648 36.112C341.69 218.446 198.501 329.522 31.323 344.006l1.36 16C206.16 344.978 354.737 229.701 412.395 65.398l12.912-36.896 23.536 47.08a8.004 8.004 0 0 0 14.32-7.152zM96.003 384.006h-56a8 8 0 0 0-8 8v48a8 8 0 0 0 8 8h56a8 8 0 0 0 8-8v-48a8 8 0 0 0-8-8zm-8 48h-40v-32h40v32zM184.003 360.006h-56a8 8 0 0 0-8 8v72a8 8 0 0 0 8 8h56a8 8 0 0 0 8-8v-72a8 8 0 0 0-8-8zm-8 72h-40v-56h40v56zM272.003 320.006h-56a8 8 0 0 0-8 8v112a8 8 0 0 0 8 8h56a8 8 0 0 0 8-8v-112a8 8 0 0 0-8-8zm-8 112h-40v-96h40v96z"/><path d="M360.003 264.006h-56a8 8 0 0 0-8 8v168a8 8 0 0 0 8 8h56a8 8 0 0 0 8-8v-168a8 8 0 0 0-8-8zm-8 168h-40v-152h40v152zM448.003 152.006h-56a8 8 0 0 0-8 8v280a8 8 0 0 0 8 8h56a8 8 0 0 0 8-8v-280a8 8 0 0 0-8-8zm-8 280h-40v-264h40v264z" fill="#FFF"/></symbol><symbol id="diamond" viewBox="0 0 512 512"><path d="M506.135 221.963l-87.197-98.667a10 10 0 0 0-7.493-3.378H100.556a10 10 0 0 0-7.493 3.378L5.865 221.963a10.001 10.001 0 0 0 .954 14.185c.021.023.037.049.058.073l241.642 272.415a9.999 9.999 0 0 0 14.962 0l241.642-272.415c.021-.023.038-.049.058-.073a10.001 10.001 0 0 0 .954-14.185zm-112.422-82.046l-44.441 71.644-71.22-71.644h115.661zm-65.659 78.668H183.946L256 146.102l72.054 72.483zm-94.106-78.667l-71.22 71.644-44.441-71.644h115.661zm-134.944 6.856l44.545 71.811H35.541l63.463-71.811zm-63.295 91.811h118.178l81.636 225.261L35.709 238.585zm241.139 224.843l57.038-154.372c1.914-5.181-.734-10.932-5.914-12.846-5.183-1.916-10.933.733-12.846 5.914l-59.035 159.777-80.931-223.316h301.131L276.848 463.428zm91.603-244.843l44.545-71.811 63.463 71.811H368.451zM256 0c-5.522 0-10 4.477-10 10v51.513c0 5.523 4.478 10 10 10s10-4.477 10-10V10c0-5.523-4.478-10-10-10zM347.062 39.524c-3.905-3.905-10.235-3.905-14.143 0l-36.426 36.425c-3.905 3.905-3.905 10.237 0 14.142a9.972 9.972 0 0 0 7.072 2.929 9.972 9.972 0 0 0 7.071-2.929l36.426-36.425c3.905-3.905 3.905-10.237 0-14.142zM213.558 75.949l-36.425-36.425c-3.904-3.905-10.234-3.905-14.143 0-3.905 3.905-3.905 10.237 0 14.142l36.426 36.425c1.953 1.953 4.512 2.929 7.071 2.929s5.118-.977 7.071-2.929c3.905-3.905 3.905-10.237 0-14.142z" fill="#FFF"/><circle cx="337.43" cy="268.36" r="10" fill="#FFF"/></symbol><symbol id="facebook" viewBox="0 0 24 24"><path d="M9 8H6v4h3v12h5V12h3.642L18 8h-4V6.333C14 5.378 14.192 5 15.115 5H18V0h-3.808C10.596 0 9 1.583 9 4.615V8z"/></symbol><symbol id="factory" viewBox="0 0 512.001 512.001"><path d="M196.001 451.876c-5.52 0-10 4.48-10 10s4.48 10 10 10 10-4.48 10-10-4.48-10-10-10z" fill="#FFF"/><path d="M506.77 250.086a10.001 10.001 0 0 0-10.221.407l-107.548 69.95v-61.687c0-3.667-2.008-7.041-5.231-8.79a10.004 10.004 0 0 0-10.221.407l-107.548 69.95v-61.567c0-3.666-2.007-7.039-5.229-8.789a9.996 9.996 0 0 0-10.218.403l-102.436 66.544-15.149-187.843a10 10 0 0 0-9.968-9.195h-83a10 10 0 0 0-9.968 9.195l-30 372a9.999 9.999 0 0 0 9.968 10.804h492c5.522 0 10-4.477 10-10v-243c0-3.666-2.008-7.04-5.231-8.789zM49.227 139.876h64.549l1.855 23h-68.26l1.856-23zm-3.468 43h71.484l1.854 23H43.905l1.854-23zm-3.467 43h78.419l18.225 226H24.066l18.226-226zm-21.451 266l1.613-20h118.095l1.613 20H20.841zm471.16 0H162.227l-12.282-152.3 96.056-62.399v61.579a10 10 0 1 0 15.452 8.383l107.548-69.95v61.687c0 3.667 2.008 7.041 5.231 8.79a10.004 10.004 0 0 0 10.221-.407l107.548-69.95v214.567z" fill="#FFF"/><path d="M256.001 368.876h-60c-5.522 0-10 4.477-10 10v40c0 5.523 4.478 10 10 10h60c5.522 0 10-4.477 10-10v-40c0-5.523-4.478-10-10-10zm-10 40h-40v-20h40v20zM359.001 368.876h-63c-5.522 0-10 4.477-10 10v40c0 5.523 4.478 10 10 10h63c5.522 0 10-4.477 10-10v-40c0-5.523-4.478-10-10-10zm-10 40h-43v-20h43v20zM462.001 368.876h-63c-5.522 0-10 4.477-10 10v40c0 5.523 4.478 10 10 10h63c5.522 0 10-4.477 10-10v-40c0-5.523-4.478-10-10-10zm-10 40h-43v-20h43v20zM236.003.126h-.12c-5.522.066-9.946 4.596-9.881 10.118.029 2.452-.937 4.795-2.719 6.598a10.295 10.295 0 0 1-7.282 3.033h-122c-27.57 0-50 22.43-50 50 0 5.524 4.478 10.001 10 10.001s10-4.477 10-10c0-16.542 13.458-30 30-30h122c8.032 0 15.872-3.271 21.509-8.975 5.568-5.635 8.583-13.055 8.49-20.894-.064-5.482-4.528-9.881-9.997-9.881z" fill="#FFF"/><path d="M256.001 40.006c-5.522 0-10 4.477-10 10v.23c0 5.249-4.486 9.52-10.011 9.52l-111.989.12c-16.542 0-30 13.458-30 30 0 5.523 4.478 10 10 10s10-4.477 10-10c0-5.514 4.486-10 10.011-10l111.989-.12c16.542 0 30-13.243 30-29.52v-.23c0-5.523-4.478-10-10-10zM462.001 451.876h-226c-5.522 0-10 4.477-10 10s4.478 10 10 10h226c5.522 0 10-4.477 10-10s-4.477-10-10-10zM93.001 268.876h-23c-5.522 0-10 4.477-10 10s4.478 10 10 10h23c5.522 0 10-4.477 10-10s-4.478-10-10-10zM93.001 308.876h-23c-5.522 0-10 4.477-10 10s4.478 10 10 10h23c5.522 0 10-4.477 10-10s-4.478-10-10-10zM93.001 348.876h-23c-5.522 0-10 4.477-10 10s4.478 10 10 10h23c5.522 0 10-4.477 10-10s-4.478-10-10-10zM93.001 388.876h-23c-5.522 0-10 4.477-10 10s4.478 10 10 10h23c5.522 0 10-4.477 10-10s-4.477-10-10-10z" fill="#FFF"/></symbol><symbol id="hotel" viewBox="0 0 480 480"><path d="M472 76h-88V12a8 8 0 0 0-8-8H104a8 8 0 0 0-8 8v112H8a8 8 0 0 0-8 8v328a8 8 0 0 0 16 0V140h80v328a8 8 0 0 0 8 8h272a8 8 0 0 0 8-8V92h80v368a8 8 0 0 0 16 0V84a8 8 0 0 0-8-8zM232 460h-32v-72h32v72zm48 0h-32v-72h32v72zm88 0h-72v-80a8 8 0 0 0-8-8h-96a8 8 0 0 0-8 8v80h-72V20h256v440z" fill="#FFF"/><path d="M184 36h-48a8 8 0 0 0-8 8v48a8 8 0 0 0 8 8h48a8 8 0 0 0 8-8V44a8 8 0 0 0-8-8zm-8 48h-32V52h32v32zM264 36h-48a8 8 0 0 0-8 8v48a8 8 0 0 0 8 8h48a8 8 0 0 0 8-8V44a8 8 0 0 0-8-8zm-8 48h-32V52h32v32zM344 36h-48a8 8 0 0 0-8 8v48a8 8 0 0 0 8 8h48a8 8 0 0 0 8-8V44a8 8 0 0 0-8-8zm-8 48h-32V52h32v32zM184 116h-48a8 8 0 0 0-8 8v48a8 8 0 0 0 8 8h48a8 8 0 0 0 8-8v-48a8 8 0 0 0-8-8zm-8 48h-32v-32h32v32zM264 116h-48a8 8 0 0 0-8 8v48a8 8 0 0 0 8 8h48a8 8 0 0 0 8-8v-48a8 8 0 0 0-8-8zm-8 48h-32v-32h32v32zM344 116h-48a8 8 0 0 0-8 8v48a8 8 0 0 0 8 8h48a8 8 0 0 0 8-8v-48a8 8 0 0 0-8-8zm-8 48h-32v-32h32v32zM184 196h-48a8 8 0 0 0-8 8v48a8 8 0 0 0 8 8h48a8 8 0 0 0 8-8v-48a8 8 0 0 0-8-8zm-8 48h-32v-32h32v32zM264 196h-48a8 8 0 0 0-8 8v48a8 8 0 0 0 8 8h48a8 8 0 0 0 8-8v-48a8 8 0 0 0-8-8zm-8 48h-32v-32h32v32zM344 196h-48a8 8 0 0 0-8 8v48a8 8 0 0 0 8 8h48a8 8 0 0 0 8-8v-48a8 8 0 0 0-8-8zm-8 48h-32v-32h32v32zM184 276h-48a8 8 0 0 0-8 8v48a8 8 0 0 0 8 8h48a8 8 0 0 0 8-8v-48a8 8 0 0 0-8-8zm-8 48h-32v-32h32v32zM264 276h-48a8 8 0 0 0-8 8v48a8 8 0 0 0 8 8h48a8 8 0 0 0 8-8v-48a8 8 0 0 0-8-8zm-8 48h-32v-32h32v32zM344 276h-48a8 8 0 0 0-8 8v48a8 8 0 0 0 8 8h48a8 8 0 0 0 8-8v-48a8 8 0 0 0-8-8zm-8 48h-32v-32h32v32zM48 156h-8a8 8 0 0 0-8 8v8a8 8 0 0 0 8 8h8a8 8 0 0 0 8-8v-8a8 8 0 0 0-8-8zM80 156h-8a8 8 0 0 0-8 8v8a8 8 0 0 0 8 8h8a8 8 0 0 0 8-8v-8a8 8 0 0 0-8-8zM48 188h-8a8 8 0 0 0-8 8v8a8 8 0 0 0 8 8h8a8 8 0 0 0 8-8v-8a8 8 0 0 0-8-8zM80 188h-8a8 8 0 0 0-8 8v8a8 8 0 0 0 8 8h8a8 8 0 0 0 8-8v-8a8 8 0 0 0-8-8zM48 220h-8a8 8 0 0 0-8 8v8a8 8 0 0 0 8 8h8a8 8 0 0 0 8-8v-8a8 8 0 0 0-8-8zM80 220h-8a8 8 0 0 0-8 8v8a8 8 0 0 0 8 8h8a8 8 0 0 0 8-8v-8a8 8 0 0 0-8-8zM48 252h-8a8 8 0 0 0-8 8v8a8 8 0 0 0 8 8h8a8 8 0 0 0 8-8v-8a8 8 0 0 0-8-8zM80 252h-8a8 8 0 0 0-8 8v8a8 8 0 0 0 8 8h8a8 8 0 0 0 8-8v-8a8 8 0 0 0-8-8zM48 284h-8a8 8 0 0 0-8 8v8a8 8 0 0 0 8 8h8a8 8 0 0 0 8-8v-8a8 8 0 0 0-8-8zM80 284h-8a8 8 0 0 0-8 8v8a8 8 0 0 0 8 8h8a8 8 0 0 0 8-8v-8a8 8 0 0 0-8-8zM48 316h-8a8 8 0 0 0-8 8v8a8 8 0 0 0 8 8h8a8 8 0 0 0 8-8v-8a8 8 0 0 0-8-8zM80 316h-8a8 8 0 0 0-8 8v8a8 8 0 0 0 8 8h8a8 8 0 0 0 8-8v-8a8 8 0 0 0-8-8zM48 348h-8a8 8 0 0 0-8 8v8a8 8 0 0 0 8 8h8a8 8 0 0 0 8-8v-8a8 8 0 0 0-8-8zM80 348h-8a8 8 0 0 0-8 8v8a8 8 0 0 0 8 8h8a8 8 0 0 0 8-8v-8a8 8 0 0 0-8-8zM48 380h-8a8 8 0 0 0-8 8v8a8 8 0 0 0 8 8h8a8 8 0 0 0 8-8v-8a8 8 0 0 0-8-8zM80 380h-8a8 8 0 0 0-8 8v8a8 8 0 0 0 8 8h8a8 8 0 0 0 8-8v-8a8 8 0 0 0-8-8zM48 412h-8a8 8 0 0 0-8 8v8a8 8 0 0 0 8 8h8a8 8 0 0 0 8-8v-8a8 8 0 0 0-8-8zM80 412h-8a8 8 0 0 0-8 8v8a8 8 0 0 0 8 8h8a8 8 0 0 0 8-8v-8a8 8 0 0 0-8-8zM440 108h-32a8 8 0 0 0-8 8v32a8 8 0 0 0 8 8h32a8 8 0 0 0 8-8v-32a8 8 0 0 0-8-8zm-8 32h-16v-16h16v16zM440 172h-32a8 8 0 0 0-8 8v32a8 8 0 0 0 8 8h32a8 8 0 0 0 8-8v-32a8 8 0 0 0-8-8zm-8 32h-16v-16h16v16zM440 236h-32a8 8 0 0 0-8 8v32a8 8 0 0 0 8 8h32a8 8 0 0 0 8-8v-32a8 8 0 0 0-8-8zm-8 32h-16v-16h16v16zM440 300h-32a8 8 0 0 0-8 8v32a8 8 0 0 0 8 8h32a8 8 0 0 0 8-8v-32a8 8 0 0 0-8-8zm-8 32h-16v-16h16v16zM440 364h-32a8 8 0 0 0-8 8v32a8 8 0 0 0 8 8h32a8 8 0 0 0 8-8v-32a8 8 0 0 0-8-8zm-8 32h-16v-16h16v16z" fill="#FFF"/></symbol><symbol id="instagram" viewBox="0 0 24 24"><path d="M12 2.163c3.204 0 3.584.012 4.85.07 3.252.148 4.771 1.691 4.919 4.919.058 1.265.069 1.645.069 4.849 0 3.205-.012 3.584-.069 4.849-.149 3.225-1.664 4.771-4.919 4.919-1.266.058-1.644.07-4.85.07-3.204 0-3.584-.012-4.849-.07-3.26-.149-4.771-1.699-4.919-4.92-.058-1.265-.07-1.644-.07-4.849 0-3.204.013-3.583.07-4.849.149-3.227 1.664-4.771 4.919-4.919 1.266-.057 1.645-.069 4.849-.069zM12 0C8.741 0 8.333.014 7.053.072 2.695.272.273 2.69.073 7.052.014 8.333 0 8.741 0 12c0 3.259.014 3.668.072 4.948.2 4.358 2.618 6.78 6.98 6.98C8.333 23.986 8.741 24 12 24c3.259 0 3.668-.014 4.948-.072 4.354-.2 6.782-2.618 6.979-6.98.059-1.28.073-1.689.073-4.948 0-3.259-.014-3.667-.072-4.947-.196-4.354-2.617-6.78-6.979-6.98C15.668.014 15.259 0 12 0zm0 5.838a6.162 6.162 0 1 0 0 12.324 6.162 6.162 0 0 0 0-12.324zM12 16a4 4 0 1 1 0-8 4 4 0 0 1 0 8zm6.406-11.845a1.44 1.44 0 1 0 0 2.881 1.44 1.44 0 0 0 0-2.881z"/></symbol><symbol id="mortarboard" viewBox="0 0 512 512"><g fill="#FFF"><path d="M360.465 443.988c-4.574-1.161-9.207 1.638-10.342 6.204l-8.533 34.133c-1.152 4.582 1.638 9.207 6.212 10.351a8.272 8.272 0 0 0 2.074.256 8.535 8.535 0 0 0 8.269-6.46l8.533-34.133a8.537 8.537 0 0 0-6.213-10.351zM256 273.066a8.453 8.453 0 0 0 3.26-.648l93.867-38.844c4.352-1.801 6.417-6.793 4.617-11.145-1.801-4.361-6.81-6.409-11.153-4.625L256 255.299 17.067 156.432v-2.833c0-4.71-3.823-8.533-8.533-8.533S0 148.889 0 153.599v8.533a8.524 8.524 0 0 0 5.274 7.885l247.467 102.4c1.04.435 2.15.649 3.259.649zM357.513 360.49a8.522 8.522 0 0 0-11.426-3.874c-16.205 8.013-43.273 17.331-81.553 18.603v-76.553c0-4.71-3.823-8.533-8.533-8.533s-8.533 3.823-8.533 8.533v76.476c-105.958-3.379-140.151-67.567-145.067-78.251v-57.958a8.536 8.536 0 0 0-8.533-8.533 8.536 8.536 0 0 0-8.533 8.533v59.733c0 1.084.205 2.159.606 3.174 1.485 3.695 37.803 90.692 170.061 90.692 46.225 0 78.618-11.213 97.647-20.617 4.23-2.09 5.963-7.201 3.864-11.425zM384 452.266a8.53 8.53 0 0 0-8.533 8.533v25.6a8.53 8.53 0 0 0 8.533 8.533 8.53 8.53 0 0 0 8.533-8.533v-25.6a8.53 8.53 0 0 0-8.533-8.533z"/><path d="M503.467 145.066a8.53 8.53 0 0 0-8.533 8.533v2.816l-102.4 42.146v-15.42l114.193-47.258a8.525 8.525 0 0 0 5.274-7.885 8.539 8.539 0 0 0-5.265-7.885L259.26 17.714a8.54 8.54 0 0 0-6.519 0L5.274 120.114a8.533 8.533 0 0 0 0 15.77l247.467 102.4c1.041.435 2.15.649 3.26.649s2.219-.213 3.26-.649l89.481-37.026c4.361-1.792 6.426-6.784 4.625-11.145-1.801-4.352-6.793-6.409-11.145-4.617L256 221.166 30.848 127.999 256 34.832l225.152 93.167-97.971 40.542-93.841-35.038c.495-1.775.794-3.601.794-5.504 0-14.353-14.993-25.6-34.133-25.6s-34.133 11.247-34.133 25.6c0 14.353 14.993 25.6 34.133 25.6 8.542 0 16.162-2.33 22.084-6.084l97.382 36.361V394.104c-9.907 3.541-17.067 12.919-17.067 24.03 0 14.114 11.486 25.6 25.6 25.6s25.6-11.486 25.6-25.6c0-11.11-7.159-20.488-17.067-24.03v-48.435c24.499-18.492 33.28-43.119 33.664-44.211a8.631 8.631 0 0 0 .469-2.79v-59.733c0-4.71-3.814-8.533-8.533-8.533s-8.533 3.823-8.533 8.533v58.155c-1.476 3.618-6.605 14.771-17.067 25.779v-105.85l114.185-46.993a8.53 8.53 0 0 0 5.282-7.893V153.6a8.53 8.53 0 0 0-8.533-8.534zM256 136.532c-10.419 0-17.067-5.052-17.067-8.533 0-3.482 6.647-8.533 17.067-8.533s17.067 5.052 17.067 8.533c0 3.482-6.648 8.533-17.067 8.533zm128 290.134c-4.71 0-8.533-3.831-8.533-8.533S379.29 409.6 384 409.6s8.533 3.831 8.533 8.533c0 4.701-3.823 8.533-8.533 8.533zM417.877 450.192c-1.143-4.565-5.786-7.356-10.342-6.204a8.535 8.535 0 0 0-6.212 10.351l8.533 34.133a8.535 8.535 0 0 0 8.269 6.46c.683 0 1.382-.077 2.074-.256a8.531 8.531 0 0 0 6.212-10.351l-8.534-34.133z"/></g></symbol><symbol id="objective" viewBox="0 0 414.295 414.295"><path d="M342.804 129.011l69.12-69.12a8 8 0 0 0-5.36-13.68l.24.48-37.6-1.28-1.28-37.6a8 8 0 0 0-13.68-5.36l-69.04 68.72a8 8 0 0 0-2.32 5.92v8C200.799 28.544 88.417 49.247 31.87 131.331S-3.975 325.798 78.11 382.345c82.084 56.547 194.467 35.844 251.014-46.24 42.471-61.651 42.471-143.122 0-204.774h8a8.004 8.004 0 0 0 5.68-2.32zm2.4 104.8c.12 90.928-73.495 164.737-164.423 164.857-90.928.12-164.737-73.495-164.857-164.423-.12-90.928 73.495-164.737 164.423-164.857a164.64 164.64 0 0 1 103.497 36.423l.4 13.36-32 32c-45.521-39.897-114.766-35.337-154.663 10.184-39.897 45.521-35.337 114.766 10.184 154.663 45.521 39.897 114.766 35.337 154.663-10.184 35.846-40.9 36.279-101.899 1.016-143.303l32-32 13.2.48a164.486 164.486 0 0 1 36.56 102.8zm-169.76 5.36a8 8 0 0 0 11.28 0l16-16a23.993 23.993 0 0 1 2.4 10.32c0 13.255-10.745 24-24 24s-24-10.745-24-24 10.745-24 24-24c3.576.021 7.102.841 10.32 2.4l-16 16a8 8 0 0 0 0 11.28zm27.68-39.04c-18.422-12.192-43.24-7.142-55.432 11.28s-7.142 43.24 11.28 55.432 43.24 7.142 55.432-11.28a40 40 0 0 0 0-44.152l37.92-37.92c33.243 39.472 28.192 98.419-11.28 131.662-39.472 33.243-98.419 28.192-131.662-11.28-33.243-39.472-28.192-98.419 11.28-131.662 34.782-29.292 85.6-29.292 120.382 0l-37.92 37.92zm97.28-85.92l-1.12-34.08 53.6-53.6.88 26.64a8 8 0 0 0 8 8l26.64.88-53.92 53.28-34.08-1.12z"/></symbol><symbol id="oil" viewBox="0 0 496 496"><path d="M289.112 290.688L248 224.904l-41.112 65.784A45.227 45.227 0 0 0 200 314.696C200 339.68 220.32 360 245.304 360h5.4C275.68 360 296 339.68 296 314.696a45.227 45.227 0 0 0-6.888-24.008zM250.696 344h-5.4C229.144 344 216 330.856 216 314.696a29.2 29.2 0 0 1 4.456-15.528L248 255.096l27.544 44.08a29.173 29.173 0 0 1 4.456 15.52c0 16.16-13.144 29.304-29.304 29.304z" fill="#FFF"/><path d="M328 192H168c-13.232 0-24 10.768-24 24v208c0 13.232 10.768 24 24 24h160c13.232 0 24-10.768 24-24V216c0-13.232-10.768-24-24-24zm8 232c0 4.408-3.592 8-8 8H168c-4.408 0-8-3.592-8-8V216c0-4.408 3.592-8 8-8h160c4.408 0 8 3.592 8 8v208z" fill="#FFF"/><path d="M376.792 166.336L280 99.792V64h-16V24c0-13.232-10.768-24-24-24H128c-13.232 0-24 10.768-24 24v40H88v400c0 17.648 14.352 32 32 32h256c17.648 0 32-14.352 32-32V225.664a71.973 71.973 0 0 0-31.208-59.328zM120 24c0-4.408 3.592-8 8-8h16v32h16V16h16v32h16V16h16v32h16V16h16c4.408 0 8 3.592 8 8v40H120V24zm272 440c0 8.824-7.176 16-16 16H120c-8.824 0-16-7.176-16-16V112h128V96H104V80h160v16h-16v16h21.512l98.216 67.52A55.988 55.988 0 0 1 392 225.672V464z" fill="#FFF"/><path fill="#FFF" d="M208 392h16v16h-16zM240 392h16v16h-16zM272 392h16v16h-16z"/></symbol><symbol id="process" viewBox="0 0 480 480"><path d="M440 8H40C17.92 8.026.026 25.92 0 48v272c.026 22.08 17.92 39.974 40 40h144v64h-24a8 8 0 0 0-8 8v24h-16v16h208v-16h-16v-24a8 8 0 0 0-8-8h-24v-64h144c22.08-.026 39.974-17.92 40-40V48c-.026-22.08-17.92-39.974-40-40zM312 440v16H168v-16h144zm-112-16v-64h80v64h-80zm264-104c0 13.255-10.745 24-24 24H40c-13.255 0-24-10.745-24-24v-24h448v24zm0-40H16V48c0-13.255 10.745-24 24-24h400c13.255 0 24 10.745 24 24v232z"/><path d="M328 128h-20.176a73.028 73.028 0 0 0-2.904-6.984l14.28-14.272a8 8 0 0 0 0-11.312L296.568 72.8a8 8 0 0 0-11.312 0l-14.272 14.264A73.909 73.909 0 0 0 264 84.176V64a8 8 0 0 0-8-8h-32a8 8 0 0 0-8 8v20.176a74.234 74.234 0 0 0-6.984 2.896L194.744 72.8a8 8 0 0 0-11.312 0L160.8 95.432a8 8 0 0 0 0 11.312l14.272 14.272a73.028 73.028 0 0 0-2.904 6.984H152a8 8 0 0 0-8 8v32a8 8 0 0 0 8 8h20.176a73.028 73.028 0 0 0 2.904 6.984l-14.28 14.272a8 8 0 0 0 0 11.312l22.632 22.632a8 8 0 0 0 11.312 0l14.264-14.264a74.223 74.223 0 0 0 6.992 2.896V240a8 8 0 0 0 8 8h32a8 8 0 0 0 8-8v-20.176a74.223 74.223 0 0 0 6.992-2.896l14.264 14.272a8.232 8.232 0 0 0 11.312 0l22.632-22.632a8 8 0 0 0 0-11.312l-14.272-14.272a73.076 73.076 0 0 0 2.896-6.984H328a8 8 0 0 0 8-8v-32a8 8 0 0 0-8-8zm-8 32.008h-18.096a8 8 0 0 0-7.736 6 56 56 0 0 1-5.976 14.4 8 8 0 0 0 1.24 9.728l12.8 12.8-11.312 11.312-12.8-12.8a7.999 7.999 0 0 0-9.728-1.232 55.851 55.851 0 0 1-14.4 5.96 8.001 8.001 0 0 0-6 7.744V232H232v-18.096a8.001 8.001 0 0 0-6-7.744 55.851 55.851 0 0 1-14.4-5.96 7.999 7.999 0 0 0-9.728 1.232l-12.8 12.8-11.312-11.312 12.8-12.8a8 8 0 0 0 1.24-9.728 56 56 0 0 1-5.976-14.4 8 8 0 0 0-7.736-6H160V144h18.096a8 8 0 0 0 7.736-6 56 56 0 0 1 5.976-14.4 8 8 0 0 0-1.24-9.728l-12.8-12.8L189.08 89.76l12.8 12.8a7.999 7.999 0 0 0 9.728 1.232 56.021 56.021 0 0 1 14.4-5.96 8.001 8.001 0 0 0 6-7.744V72h16v18.096a8.001 8.001 0 0 0 6 7.744 56.021 56.021 0 0 1 14.4 5.96 7.999 7.999 0 0 0 9.728-1.232l12.8-12.8 11.312 11.312-12.8 12.8a8 8 0 0 0-1.24 9.728 56 56 0 0 1 5.976 14.4 8 8 0 0 0 7.736 6H320v16z"/><path d="M240 112c-22.091 0-40 17.909-40 40 .026 22.08 17.92 39.974 40 40 22.091 0 40-17.909 40-40s-17.909-40-40-40zm0 64c-13.255 0-24-10.745-24-24s10.745-24 24-24 24 10.745 24 24-10.745 24-24 24z"/></symbol><symbol id="rocket" viewBox="0 0 24 24"><path d="M23.948.042A17.934 17.934 0 0 0 22.734 0c-8.6 0-13.497 6.557-15.278 11.833l4.727 4.727C17.611 14.616 24 9.9 24 1.392c0-.44-.017-.89-.052-1.35zM12.671 14.22l-2.883-2.883c1.221-2.859 4.691-8.945 12.199-9.32-.251 5.775-4.041 9.932-9.316 12.203zm5.471 1.538c-.547.373-1.09.71-1.628 1.011-.187.891-.662 1.842-1.351 2.652-.002-.576-.162-1.156-.443-1.738a23.86 23.86 0 0 1-1.414.588c.66 1.709-.012 2.971-.915 4.154 1.296-.098 2.656-.732 3.728-1.805 1.155-1.155 1.967-2.823 2.023-4.862zM6.322 9.289c-.579-.28-1.158-.438-1.732-.441.803-.681 1.744-1.153 2.626-1.345.314-.552.667-1.097 1.039-1.633-2.039.055-3.708.867-4.864 2.023-1.071 1.071-1.706 2.433-1.804 3.728 1.184-.904 2.446-1.576 4.155-.914.173-.471.366-.944.58-1.418zm7.738.663a.999.999 0 1 1 1.414-1.414 1 1 0 1 1-1.414 1.414zm4.949-4.951a2 2 0 1 0-2.826 2.829 2 2 0 0 0 2.826-2.829zm-1.908 1.911a.7.7 0 0 1 .99-.99.703.703 0 0 1 0 .99.703.703 0 0 1-.99 0zm-6.747 10.65C8.862 21.372 4.551 23.77 0 24c.219-4.289 2.657-8.676 6.64-10.153l.805.806c-4.331 2.755-4.653 5.346-4.665 6.575 1.268-.015 4.054-.344 6.778-4.464l.796.798z"/></symbol><symbol id="script" viewBox="0 0 24 24"><path d="M21.155 8.64c-.909 1.519-2.327 3.067-4.097 3.004-.413.706-.852 1.677-1.339 2.803L14.407 15c.936-2.343 2.231-4.961 3.698-6.994-.67.529-1.746 1.637-2.662 2.783-1.098-1.828-.3-3.691.973-5.179.021.641.359 1.196.601 1.475-.087-.53-.114-1.489.195-2.351.718-.732 1.364-1.271 2.113-1.76-.083.478.08 1.026.262 1.361.024-.49.224-1.43.521-1.84C21.032 1.768 22.44 1.122 24 1c-.081.973-.436 2.575-1.024 3.604-.515.404-1.221.68-1.791.833a4.485 4.485 0 0 0 1.494-.001 17.144 17.144 0 0 1-.998 2.276c-.679.468-1.578.732-2.203.825.46.187 1.272.245 1.677.103zM7.314 12.445l.645.781 4.773-2.791-.668-.768-4.75 2.778zm6.96-.238l-.668-.767-4.805 2.808.645.781 4.828-2.822zm4.679.007a4.232 4.232 0 0 1-1.286.398c-.12.231-.246.494-.377.773l.298.342c.623.692.459 1.704-.376 2.239-.773.497-5.341 3.376-6.386 4.035A3.577 3.577 0 0 0 10 18.053c-.469-.557-6.115-7.376-7.523-9.178-.469-.6-.575-1.245-.295-1.816.268-.549.842-.918 1.43-.918.919 0 1.408.655 1.549 1.215.16.641-.035 1.231-.623 1.685l1.329 1.624 7.796-4.446a3.44 3.44 0 0 0 .93-4.513A3.466 3.466 0 0 0 11.615 0c-1.188 0-.793-.016-9.565 4.475C.816 5.066 0 6.262 0 7.677c0 .87.308 1.756.889 2.487 1.427 1.794 7.561 9.185 7.616 9.257.371.493.427 1.119.15 1.673a1.57 1.57 0 0 1-1.429.886c-.919 0-1.408-.655-1.549-1.216-.156-.629.012-1.208.604-1.654l-1.277-1.545c-.822.665-1.277 1.496-1.377 2.442C3.395 22.212 5.152 24 7.24 24c.596 0 1.311-.177 1.841-.51l9.427-5.946C19.465 16.88 20 15.763 20 14.647c0-.745-.24-1.454-.688-2.003l-.359-.43zM11.02 2.152c.188-.087.398-.134.609-.134.532 0 .997.281 1.243.752.312.596.226 1.469-.548 1.912L7.227 7.57a3.594 3.594 0 0 0-1.455-2.732l5.248-2.686zm2.097 13.383l.361-.905.249-.609-3.449 2.017.645.781 2.194-1.284z"/></symbol><symbol id="settings" viewBox="0 0 54 54"><g fill="#FFF"><path d="M27 13c-7.72 0-14 6.28-14 14s6.28 14 14 14 14-6.28 14-14-6.28-14-14-14zm0 26c-6.617 0-12-5.383-12-12s5.383-12 12-12 12 5.383 12 12-5.383 12-12 12z"/><path d="M51.22 21h-2.018a22.792 22.792 0 0 0-2.26-5.457l1.426-1.426a2.763 2.763 0 0 0 .814-1.966c0-.743-.289-1.441-.814-1.967l-4.553-4.553c-1.05-1.049-2.881-1.051-3.933 0l-1.426 1.426A22.856 22.856 0 0 0 33 4.798V2.78A2.783 2.783 0 0 0 30.22 0h-6.44A2.783 2.783 0 0 0 21 2.78v2.018a22.842 22.842 0 0 0-5.457 2.26l-1.426-1.426c-1.051-1.052-2.883-1.05-3.933 0l-4.553 4.553a2.764 2.764 0 0 0-.814 1.967c0 .742.289 1.44.814 1.966l1.426 1.426A22.765 22.765 0 0 0 4.798 21H2.78A2.783 2.783 0 0 0 0 23.78v6.439A2.783 2.783 0 0 0 2.78 33h2.018a22.842 22.842 0 0 0 2.26 5.457l-1.426 1.426a2.763 2.763 0 0 0-.814 1.966c0 .743.289 1.441.814 1.967l4.553 4.553c1.05 1.051 2.882 1.052 3.933 0l1.426-1.426a22.883 22.883 0 0 0 5.457 2.26v2.018a2.783 2.783 0 0 0 2.78 2.78h6.439a2.783 2.783 0 0 0 2.78-2.78v-2.018a22.842 22.842 0 0 0 5.457-2.26l1.426 1.426c1.052 1.052 2.882 1.05 3.933 0l4.553-4.553a2.764 2.764 0 0 0 .814-1.967c0-.742-.289-1.44-.814-1.966l-1.426-1.426A22.883 22.883 0 0 0 49.203 33h2.018a2.783 2.783 0 0 0 2.78-2.78v-6.44A2.785 2.785 0 0 0 51.22 21zm.78 9.22c0 .43-.35.78-.78.78h-3.592l-.18.773a20.885 20.885 0 0 1-2.613 6.311l-.42.674 2.539 2.539a.78.78 0 0 1 0 1.104l-4.553 4.553a.78.78 0 0 1-1.104 0l-2.539-2.539-.674.42a20.839 20.839 0 0 1-6.311 2.613l-.773.18v3.592c0 .43-.35.78-.78.78h-6.44c-.43 0-.78-.35-.78-.78v-3.592l-.773-.18a20.885 20.885 0 0 1-6.311-2.613l-.674-.42-2.539 2.539a.78.78 0 0 1-1.104 0l-4.553-4.553a.78.78 0 0 1 0-1.104l2.539-2.539-.42-.674a20.839 20.839 0 0 1-2.613-6.311L6.372 31H2.78c-.43 0-.78-.35-.78-.78v-6.44c0-.43.35-.78.78-.78h3.592l.18-.773a20.864 20.864 0 0 1 2.613-6.311l.42-.674-2.539-2.539a.78.78 0 0 1 0-1.104l4.553-4.553a.78.78 0 0 1 1.104 0l2.539 2.539.674-.42a20.839 20.839 0 0 1 6.311-2.613l.773-.18V2.78c0-.43.35-.78.78-.78h6.439c.431 0 .781.35.781.78v3.592l.773.18a20.885 20.885 0 0 1 6.311 2.613l.674.42 2.539-2.539a.78.78 0 0 1 1.104 0l4.553 4.553a.78.78 0 0 1 0 1.104l-2.539 2.539.42.674a20.818 20.818 0 0 1 2.613 6.311l.18.773h3.592c.43 0 .78.35.78.78v6.44z"/><path d="M27 17c-5.514 0-10 4.486-10 10s4.486 10 10 10 10-4.486 10-10-4.486-10-10-10zm0 18c-4.411 0-8-3.589-8-8s3.589-8 8-8 8 3.589 8 8-3.589 8-8 8z"/></g></symbol><symbol id="shopping-cart" viewBox="0 0 511.999 511.999"><path d="M214.685 402.828c-24.829 0-45.029 20.2-45.029 45.029 0 24.829 20.2 45.029 45.029 45.029s45.029-20.2 45.029-45.029c-.001-24.829-20.201-45.029-45.029-45.029zm0 64.914c-10.966 0-19.887-8.922-19.887-19.887 0-10.966 8.922-19.887 19.887-19.887s19.887 8.922 19.887 19.887c0 10.967-8.922 19.887-19.887 19.887zM372.63 402.828c-24.829 0-45.029 20.2-45.029 45.029 0 24.829 20.2 45.029 45.029 45.029s45.029-20.2 45.029-45.029c-.001-24.829-20.201-45.029-45.029-45.029zm0 64.914c-10.966 0-19.887-8.922-19.887-19.887 0-10.966 8.922-19.887 19.887-19.887 10.966 0 19.887 8.922 19.887 19.887 0 10.967-8.922 19.887-19.887 19.887zM383.716 165.755H203.567c-6.943 0-12.571 5.628-12.571 12.571s5.629 12.571 12.571 12.571h180.149c6.943 0 12.571-5.628 12.571-12.571 0-6.944-5.628-12.571-12.571-12.571zM373.911 231.035H213.373c-6.943 0-12.571 5.628-12.571 12.571s5.628 12.571 12.571 12.571H373.91c6.943 0 12.571-5.628 12.571-12.571 0-6.942-5.628-12.571-12.57-12.571z" fill="#FFF"/><path d="M506.341 109.744a25.04 25.04 0 0 0-19.489-9.258H95.278L87.37 62.097a25.173 25.173 0 0 0-14.614-17.989l-55.177-23.95c-6.37-2.767-13.773.156-16.536 6.524-2.766 6.37.157 13.774 6.524 16.537L62.745 67.17l60.826 295.261c2.396 11.628 12.752 20.068 24.625 20.068h301.166c6.943 0 12.571-5.628 12.571-12.571s-5.628-12.571-12.571-12.571H148.197l-7.399-35.916H451.69c11.872 0 22.229-8.44 24.624-20.068l35.163-170.675a25.043 25.043 0 0 0-5.136-20.954zM451.69 296.301H135.619l-35.161-170.674 386.393.001-35.161 170.673z" fill="#FFF"/></symbol><symbol id="startup" viewBox="0 0 511.999 511.999"><circle cx="10.06" cy="500.446" r="10.06" fill="#FFF"/><circle cx="267.005" cy="245.308" r="10.04" fill="#FFF"/><path d="M398.479 118.032c-8.071-8.072-18.802-12.516-30.216-12.516-11.414 0-22.146 4.446-30.216 12.516-16.661 16.662-16.661 43.772 0 60.433 8.332 8.331 19.272 12.495 30.216 12.495 10.941 0 21.886-4.166 30.216-12.495 16.661-16.662 16.661-43.772 0-60.433zm-14.197 46.234c-8.833 8.832-23.206 8.832-32.037 0-8.833-8.832-8.833-23.204 0-32.037a22.503 22.503 0 0 1 16.018-6.635 22.503 22.503 0 0 1 16.018 6.635c8.833 8.833 8.833 23.205.001 32.037zM125.409 411.45c-4.964-2.472-10.99-.451-13.462 4.512l-11.958 24.015c-5.2 10.441-15.658 17.423-27.296 18.219l-13.908.952c-2.351.157-3.897-1.014-4.612-1.729s-1.889-2.264-1.729-4.613l.952-13.907c.797-11.637 7.779-22.096 18.219-27.296l24.014-11.958c4.964-2.472 6.984-8.499 4.512-13.462-2.471-4.963-8.498-6.984-13.462-4.512l-24.014 11.958c-16.792 8.362-28.02 25.182-29.302 43.898l-.952 13.907a26.021 26.021 0 0 0 7.562 20.183 26.024 26.024 0 0 0 20.183 7.563l13.908-.952c18.716-1.281 35.536-12.508 43.898-29.302l11.958-24.014c2.472-4.964.452-10.99-4.511-13.462z" fill="#FFF"/><path d="M505.07 8.18a23.246 23.246 0 0 0-17.793-6.639l-9.348.596c-83.819 5.351-162.262 45.81-215.215 111.004L240.71 140.23l-57.583-1.691a9.65 9.65 0 0 0-.294-.004c-45.668 0-88.603 17.784-120.896 50.076L2.959 247.59a10.04 10.04 0 0 0 6.584 17.125l124.844 6.414-5.09 6.267a10.039 10.039 0 0 0-1.026 11.127 233.734 233.734 0 0 0 6.144 10.617l-29.606 35.147a10.045 10.045 0 0 0-1.397 10.763c6.467 13.665 15.05 25.943 25.514 36.493 10.718 10.808 23.251 19.646 37.249 26.271a10.042 10.042 0 0 0 10.62-1.278c6.378-5.174 13.731-11.311 20.843-17.245 5.069-4.23 10.255-8.557 15.102-12.547a232.586 232.586 0 0 0 8.795 5.046 10.026 10.026 0 0 0 4.796 1.221c2.186 0 4.358-.712 6.156-2.108l6.843-5.31 6.442 125.37a10.041 10.041 0 0 0 10.023 9.526c2.615 0 5.183-1.023 7.101-2.942l58.979-58.979c32.293-32.293 50.076-75.227 50.076-120.896v-54.995l23.267-18.055c69.729-54.11 112.196-135.704 116.512-223.862l.239-4.886A23.262 23.262 0 0 0 505.07 8.18zM33.123 245.822l43.012-43.012c28.465-28.465 66.303-44.157 106.553-44.196l42.085 1.236-74.71 91.98-116.94-6.008zm151.651 128.052c-5.241 4.372-10.614 8.856-15.6 12.957-9.644-5.223-18.368-11.74-25.992-19.428-7.384-7.445-13.669-15.922-18.737-25.26l21.676-25.733a232.758 232.758 0 0 0 21.478 24.925l.018.017.006.007.009.008a232.765 232.765 0 0 0 27.641 23.761c-3.462 2.874-7.009 5.834-10.499 8.746zm167.101-46.202c0 40.305-15.695 78.197-44.196 106.698l-43.012 43.012-6.002-116.792 93.209-72.33v39.412zM491.678 29.779c-4.029 82.297-43.673 158.467-108.767 208.98l-157.46 122.189c-13.058-7.63-25.229-16.639-36.368-26.846l53.086-53.086c3.92-3.92 3.92-10.278 0-14.199-3.921-3.921-10.278-3.921-14.199 0l-53.036 53.036c-9.751-10.795-18.387-22.541-25.74-35.104L278.3 125.8c49.432-60.859 122.66-98.629 200.907-103.623l9.348-.596a3.151 3.151 0 0 1 2.423.904c.377.371 1 1.178.94 2.409l-.24 4.885z" fill="#FFF"/></symbol><symbol id="target" viewBox="0 0 24 24"><path d="M6 12c0 2.206 1.794 4 4 4 1.761 0 3.242-1.151 3.775-2.734l2.224-1.291L16 12a6 6 0 1 1-6-6 5.97 5.97 0 0 1 2.975.794l-2.21 1.283A4.017 4.017 0 0 0 10 8c-2.206 0-4 1.794-4 4zm4-2a2 2 0 1 0 2 2l-.002-.015 3.36-1.95c.976-.565 2.704-.336 3.711.159L24 7.331l-3.158-1.569.169-3.632L16.066 5c-.07 1.121-.734 2.736-1.705 3.301l-3.383 1.964A1.99 1.99 0 0 0 10 10zm7.995 1.911L18 12c0 4.411-3.589 8-8 8s-8-3.589-8-8 3.589-8 8-8c1.475 0 2.853.408 4.041 1.107.334-.586.428-1.544.146-2.18A9.953 9.953 0 0 0 10 2C4.477 2 0 6.477 0 12s4.477 10 10 10c5.233 0 9.521-4.021 9.957-9.142-.301-.483-1.066-1.061-1.962-.947z"/></symbol><symbol id="time" viewBox="0 0 24 24"><path d="M21.854 13.683l1.998.159a11.942 11.942 0 0 1-.652 2.46l-1.8-.905c.2-.551.353-1.123.454-1.714zm-2.548 7.826l-1.413-1.443a9.946 9.946 0 0 1-1.555.933l.669 1.899a11.93 11.93 0 0 0 2.299-1.389zm1.226-4.309a10.091 10.091 0 0 1-1.149 1.528l1.404 1.433a12.038 12.038 0 0 0 1.539-2.058l-1.794-.903zM0 12c0 6.627 5.375 12 12.004 12a11.98 11.98 0 0 0 3.12-.424l-.665-1.894c-.787.2-1.607.318-2.455.318-5.516 0-10.003-4.486-10.003-10S6.488 2 12.004 2c2.235 0 4.293.744 5.959 1.989l-2.05 2.049 7.015 1.354L21.573.379l-2.184 2.183A11.919 11.919 0 0 0 12.004 0C5.375 0 0 5.373 0 12zm23.773-2.359h-2.076c.163.661.261 1.344.288 2.047l2.015.161a12.144 12.144 0 0 0-.227-2.208zM14.768 15v-1.419h-2.594v-1.295l2.722-3.653h1.288v3.689H17v1.259h-.815V15h-1.417zm0-2.679v-1.695l-1.263 1.695h1.263zM7 15c0-.961.275-1.709 1.234-2.419 1.129-.836 1.99-1.165 1.99-1.939 0-.512-.308-.83-.804-.83-.69 0-.855.723-.855 1.411H7.144c-.06-1.782.951-2.713 2.338-2.713 1.287 0 2.22.856 2.22 2.036 0 .589-.183 1.056-.576 1.469-.621.655-1.552.985-2.163 1.682h2.774V15H7z"/></symbol><symbol id="tools" viewBox="0 0 24 24"><path d="M4.104 0L0 4.152l18.888 18.799L24 24l-.961-5.203L4.104 0zM20.05 21.502a.426.426 0 0 1-.602 0L2.186 4.378a.426.426 0 1 1 .602-.603L20.05 20.901a.424.424 0 0 1 0 .601zm1.544-2.132a.427.427 0 0 1-.602.603L3.729 2.847a.426.426 0 0 1 .601-.602L21.594 19.37zM18.739 5.303a.5.5 0 1 1 .708-.707.5.5 0 0 1-.708.707zm-7.734 12.641L4.95 24 0 19.092l6.059-6.059 1.419 1.41-.407.407.707.707-.707.707-.707-.707-.707.707.707.707-.707.707-.707-.707-.707.707.707.707-.707.707-.707-.707-.707.708 2.121 2.121 4.657-4.657 1.398 1.387zM13.04 6.052L19.092 0 24 4.95l-6.013 6.014-1.398-1.388 4.625-4.625-2.121-2.121-2.121 2.12.707.707-.708.708-.707-.707-.707.707.707.707-.707.707-.707-.708-.39.39-1.42-1.409z"/></symbol><symbol id="train" viewBox="0 0 382.05 382.05"><path d="M210.425 60.45h-39.6c-3.2 0-6 2.8-6 6s2.8 6 6 6h39.6c3.2 0 6-2.8 6-6s-2.8-6-6-6z" fill="#FFF"/><path d="M302.425 86.45h-6v-12.8c0-19.6-16-36-36-36h-58l38-26.8c2.8-2 3.2-5.6 1.2-8.4s-5.6-3.2-8.4-1.2l-47.6 34-47.6-34c-2.8-2-6.4-1.2-8.4 1.2-2 2.8-1.2 6.4 1.2 8.4l38 26.8h-47.2c-19.6 0-36 16-36 36v12.8h-6c-10 0-18 8-18 18v39.6c0 3.2 2.8 6 6 6s6-2.8 6-6v-39.6c0-3.2 2.8-6 6-6h6v172c0 17.6 12.8 32.4 29.6 35.2l-35.2 67.6c-1.6 2.8-.4 6.4 2.4 8 .8.4 2 .8 2.8.8 2 0 4.4-1.2 5.2-3.2l12.8-24.8h174l12.8 24.8c1.2 2 3.2 3.2 5.2 3.2.8 0 2-.4 2.8-.8 2.8-1.6 4-5.2 2.4-8l-35.2-67.6c17.2-2.4 30.8-17.2 30.8-35.6v-172h6c3.2 0 6 2.8 6 6v39.6c.8 3.6 3.2 6.4 6.4 6.4s6-2.8 6-6v-39.6c0-10-8-18-18-18zm-204.8-12.8c0-13.2 10.8-24 24-24h139.2c13.2 0 24 10.8 24 24v12.8h-187.2v-12.8zm174 268.8h-162l18.8-35.6h124.4l18.8 35.6zm-10.8-48h-139.2c-13.2 0-24-10.8-24-24v-48.4h186.8v48.8c.4 13.2-10.4 23.6-23.6 23.6zm23.2-84.4h-186.4V98.45h187.2v111.6h-.8z" fill="#FFF"/><path d="M127.625 224.85c-10.4 0-18.8 8.4-18.8 18.8s8.4 18.8 18.8 18.8 18.8-8.4 18.8-18.8-8.4-18.8-18.8-18.8zm0 26c-4 0-6.8-3.2-6.8-6.8 0-4 3.2-6.8 6.8-6.8 4 0 6.8 3.2 6.8 6.8s-3.2 6.8-6.8 6.8zM256.425 224.85c-10.4 0-18.8 8.4-18.8 18.8s8.4 18.8 18.8 18.8 18.8-8.4 18.8-18.8-8.4-18.8-18.8-18.8zm0 26c-4 0-6.8-3.2-6.8-6.8 0-4 3.2-6.8 6.8-6.8s6.8 3.2 6.8 6.8-3.2 6.8-6.8 6.8zM206.425 238.05h-36.8c-3.2 0-6 2.8-6 6s2.8 6 6 6h36.8c3.2 0 6-2.8 6-6s-2.8-6-6-6z" fill="#FFF"/></symbol><symbol id="vk" viewBox="0 0 24 24"><path class="st0" d="M13.162 18.994c.609 0 .858-.406.851-.915-.031-1.917.714-2.949 2.059-1.604 1.488 1.488 1.796 2.519 3.603 2.519h3.2c.808 0 1.126-.26 1.126-.668 0-.863-1.421-2.386-2.625-3.504-1.686-1.565-1.765-1.602-.313-3.486C22.864 8.997 25.22 6 23.136 6h-3.981c-.772 0-.828.435-1.103 1.083-.995 2.347-2.886 5.387-3.604 4.922-.751-.485-.407-2.406-.35-5.261.015-.754.011-1.271-1.141-1.539A8.07 8.07 0 0 0 11.148 5c-2.273 0-3.841.953-2.95 1.119 1.571.293 1.42 3.692 1.054 5.16-.638 2.556-3.036-2.024-4.035-4.305C4.976 6.426 4.902 6 4.042 6H.787C.295 6 0 6.16 0 6.516c0 .602 2.96 6.72 5.786 9.77 2.756 2.975 5.48 2.708 7.376 2.708z"/></symbol></svg>