<svg xmlns="http://www.w3.org/2000/svg"><symbol id="battery" viewBox="0 0 24 24"><path d="M19 8v8H2V8h17zm2-2H0v12h21V6zm1 9h.75c.69 0 1.25-.56 1.25-1.25v-3.5C24 9.56 23.44 9 22.75 9H22v6zM5 10.512L11.592 15v-2.61L16 13.686 9.599 9v2.843L5 10.512z"/></symbol><symbol id="building-1"><path d="M24 24H0V6h6v6l6-4v4.008L18 8v4.017L24 8v16zM4 8H2v14h20V12l-6 4v-4l-6 4v-4l-6 4V8zm11 12h-2v-3h2v3zm-4 0H9v-3h2v3zm-4 0H5v-3h2v3zm12 0h-2v-3h2v3zM3 5H2c.198-2.182 1.785-4 3.5-4 .246 0 .478.059.683.164a2 2 0 0 1 3.634 0 1.5 1.5 0 1 1 0 2.672A2 2 0 0 1 8 5C5.655 5 4.278 2.049 3 5z"/></symbol><symbol id="building"><path d="M21 22h2v2H1v-2h2V0h18v22zm-10-3H9v4h2v-4zm4 0h-2v4h2v-4zm4-17H5v20h2v-5h10v5h2V2zM7 13h2v2H7v-2zm4 0h2v2h-2v-2zm4 0h2v2h-2v-2zm-8-3h2v2H7v-2zm4 0h2v2h-2v-2zm4 0h2v2h-2v-2zM7 7h2v2H7V7zm4 0h2v2h-2V7zm4 0h2v2h-2V7zM7 4h2v2H7V4zm4 0h2v2h-2V4zm4 0h2v2h-2V4z"/></symbol><symbol id="car" viewBox="0 0 24 24"><path d="M7 13.5a1.5 1.5 0 1 0-3.001.001A1.5 1.5 0 0 0 7 13.5zm9 1a.5.5 0 0 0-.5-.5h-7a.5.5 0 0 0 0 1h7a.5.5 0 0 0 .5-.5zm4-1a1.5 1.5 0 1 0-3.001.001A1.5 1.5 0 0 0 20 13.5zM2.702 7H.5a.5.5 0 0 0-.5.5v.511C0 8.804.926 9 1.616 9l1.086-2zm19.318 3.168c-.761-1.413-1.699-3.17-2.684-4.812-.786-1.312-1.37-1.938-2.751-2.187-1.395-.25-2.681-.347-4.585-.347s-3.19.097-4.585.347c-1.381.248-1.965.875-2.751 2.187-.981 1.637-1.913 3.382-2.684 4.812C1.293 11.441 1 12.58 1 13.974c0 1.318.42 2.415 1 3.817V20a1 1 0 0 0 1 1h1.5a1 1 0 0 0 1-1v-1h13v1a1 1 0 0 0 1 1H21a1 1 0 0 0 1-1v-2.209c.58-1.403 1-2.499 1-3.817 0-1.394-.293-2.533-.98-3.806zM6.379 6.384c.67-1.117.852-1.149 1.39-1.246 1.268-.227 2.455-.316 4.231-.316s2.963.088 4.231.316c.538.097.72.129 1.39 1.246.408.681.81 1.388 1.195 2.081C17.36 8.685 14.796 9 12 9c-3.048 0-5.517-.336-6.805-.555a74.08 74.08 0 0 1 1.184-2.061zM17.974 17H6.026A3.026 3.026 0 0 1 3 13.974c0-1.641.506-2.421 1.184-3.678C5.225 10.501 8.151 11 12 11c3.481 0 6.561-.455 7.834-.672.664 1.231 1.166 2.01 1.166 3.646A3.026 3.026 0 0 1 17.974 17zM23.5 7a.5.5 0 0 1 .5.5v.511c0 .793-.926.989-1.616.989l-1.086-2H23.5z"/></symbol><symbol id="chart" viewBox="0 0 24 24"><path d="M24 3.875l-6 1.221 1.716 1.708-5.351 5.358-3.001-3.002-7.336 7.242 1.41 1.418 5.922-5.834 2.991 2.993 6.781-6.762 1.667 1.66L24 3.875zM24 20v2H0V2h2v18h22z"/></symbol><symbol id="coin" viewBox="0 0 24 24"><path d="M17 12a6 6 0 0 0 0 12 6 6 0 0 0 0-12zm.5 8.474V21H17v-.499a3.459 3.459 0 0 1-1.5-.363l.228-.822c.478.186 1.114.383 1.612.27.574-.13.692-.721.057-1.005-.465-.217-1.889-.402-1.889-1.622 0-.681.52-1.292 1.492-1.425V15h.5v.509c.362.01.768.073 1.221.21l-.181.824c-.384-.135-.808-.257-1.222-.232-.744.043-.81.688-.29.958.856.402 1.972.7 1.972 1.773.001.858-.672 1.315-1.5 1.432zm1.624-10.179c1.132-.223 2.162-.626 2.876-1.197v.652c0 .499-.386.955-1.007 1.328a7.946 7.946 0 0 0-1.869-.783zM17 4.5c2.673 0 5-1.007 5-2.25S19.673 0 17 0c-2.672 0-5 1.007-5 2.25s2.328 2.25 5 2.25zm.093-2.009c-.299-.09-1.214-.166-1.214-.675 0-.284.334-.537.958-.593V1h.321v.211c.234.005.494.03.784.09l-.116.342a3.207 3.207 0 0 0-.708-.099l-.072.001c-.482.02-.521.287-.188.399.547.169 1.267.292 1.267.74 0 .357-.434.548-.967.596v.22h-.321v-.208a3.23 3.23 0 0 1-.962-.152l.147-.343c.244.063.552.126.828.126l.208-.014c.369-.053.443-.3.035-.418zM6 15.5c1.445 0 2.775-.301 3.705-.768a8.029 8.029 0 0 1 1.198-1.899C10.452 11.79 8.364 11 6 11c-2.672 0-5 1.007-5 2.25s2.328 2.25 5 2.25zm.093-2.009c-.299-.09-1.214-.166-1.214-.675 0-.284.335-.537.958-.593V12h.321v.211c.234.005.494.03.784.09l-.117.342a3.19 3.19 0 0 0-.707-.099l-.072.001c-.482.02-.52.287-.188.399.547.169 1.267.292 1.267.74 0 .357-.434.548-.967.596v.22h-.321v-.208a3.225 3.225 0 0 1-.962-.152l.147-.343c.244.063.552.126.828.126l.208-.014c.368-.053.443-.3.035-.418zm4.003 8.531C9.177 22.612 7.656 23 6 23c-2.672 0-5-1.007-5-2.25v-.652c1.146.918 3.109 1.402 5 1.402 1.236 0 2.499-.211 3.549-.611.153.394.336.773.547 1.133zM1 18.25v-.651C2.146 18.516 4.109 19 6 19a10.59 10.59 0 0 0 3.028-.435c.033.469.107.926.218 1.37-.888.347-2.024.565-3.246.565-2.672 0-5-1.007-5-2.25zm0-2.5v-.652c1.146.918 3.109 1.402 5 1.402 1.127 0 2.275-.176 3.266-.509a7.923 7.923 0 0 0-.241 1.526C8.171 17.815 7.122 18 6 18c-2.672 0-5-1.007-5-2.25zm11-11v-.652c1.146.918 3.109 1.402 5 1.402 1.892 0 3.854-.484 5-1.402v.652C22 5.993 19.673 7 17 7c-2.672 0-5-1.007-5-2.25zm0 5v-.652c.713.571 1.744.974 2.876 1.197a7.939 7.939 0 0 0-1.868.783C12.386 10.705 12 10.249 12 9.75zm0-2.5v-.651C13.146 7.516 15.109 8 17 8c1.892 0 3.854-.484 5-1.401v.651c0 1.243-2.327 2.25-5 2.25-2.672 0-5-1.007-5-2.25z"/></symbol><symbol id="computer" viewBox="0 0 24 24"><path d="M0 3v15h17V3H0zm15 13H2V5h13v11zm-4.5 3l1.599 2H4.901L6.5 19h4zm8.5 2h5V8h-5v13zm3.1-3.5a.6.6 0 1 1-1.2 0 .6.6 0 0 1 1.2 0zM22 10v5h-1v-5h1z"/></symbol><symbol id="database" viewBox="0 0 24 24"><path d="M1 3.488C1 1.562 5.656 0 11 0c5.345 0 10 1.562 10 3.488s-4.655 3.487-10 3.487c-5.344 0-10-1.561-10-3.487zm10 14.823c.34 0 .678-.007 1.011-.019a6.454 6.454 0 0 1 1.342-3.745c-.839.067-1.643.1-2.353.1-3.006 0-7.588-.523-10-2.256v2.434c0 1.925 4.656 3.486 10 3.486zm0-5.665c5.345 0 10-1.562 10-3.487v-2.44c-2.418 1.738-7.005 2.256-10 2.256-3.006 0-7.588-.523-10-2.256v2.44c0 1.926 4.656 3.487 10 3.487zm1.254 7.635c-.438.02-.861.03-1.254.03-2.995 0-7.582-.518-10-2.256v2.458C1 22.438 5.656 24 11 24c1.284 0 2.526-.092 3.676-.256a6.507 6.507 0 0 1-2.422-3.463zM18.5 14c-2.483 0-4.5 2.015-4.5 4.5s2.017 4.5 4.5 4.5 4.5-2.015 4.5-4.5-2.017-4.5-4.5-4.5zm-.563 6.55l-1.84-1.778.736-.758 1.089 1.05 2.43-2.439.751.744-3.166 3.181z"/></symbol><symbol id="diamond" viewBox="0 0 24 24"><path d="M18 1H6.084L0 8l12 15L24 8.083 18 1zM6.333 9l3.231 7.753L3.361 9h2.972zM15.5 9L12 17.4 8.5 9h7zM9.135 7L12 3.562 14.865 7h-5.73zm8.532 2h3.028l-6.283 7.811L17.667 9zm2.794-2h-2.992l-3.334-4h2.938l3.388 4zM6.996 3h2.869L6.531 7H3.52l3.476-4z"/></symbol><symbol id="facebook" viewBox="0 0 24 24"><path d="M9 8H6v4h3v12h5V12h3.642L18 8h-4V6.333C14 5.378 14.192 5 15.115 5H18V0h-3.808C10.596 0 9 1.583 9 4.615V8z"/></symbol><symbol id="instagram" viewBox="0 0 24 24"><path d="M12 2.163c3.204 0 3.584.012 4.85.07 3.252.148 4.771 1.691 4.919 4.919.058 1.265.069 1.645.069 4.849 0 3.205-.012 3.584-.069 4.849-.149 3.225-1.664 4.771-4.919 4.919-1.266.058-1.644.07-4.85.07-3.204 0-3.584-.012-4.849-.07-3.26-.149-4.771-1.699-4.919-4.92-.058-1.265-.07-1.644-.07-4.849 0-3.204.013-3.583.07-4.849.149-3.227 1.664-4.771 4.919-4.919 1.266-.057 1.645-.069 4.849-.069zM12 0C8.741 0 8.333.014 7.053.072 2.695.272.273 2.69.073 7.052.014 8.333 0 8.741 0 12c0 3.259.014 3.668.072 4.948.2 4.358 2.618 6.78 6.98 6.98C8.333 23.986 8.741 24 12 24c3.259 0 3.668-.014 4.948-.072 4.354-.2 6.782-2.618 6.979-6.98.059-1.28.073-1.689.073-4.948 0-3.259-.014-3.667-.072-4.947-.196-4.354-2.617-6.78-6.979-6.98C15.668.014 15.259 0 12 0zm0 5.838a6.162 6.162 0 1 0 0 12.324 6.162 6.162 0 0 0 0-12.324zM12 16a4 4 0 1 1 0-8 4 4 0 0 1 0 8zm6.406-11.845a1.44 1.44 0 1 0 0 2.881 1.44 1.44 0 0 0 0-2.881z"/></symbol><symbol id="rocket" viewBox="0 0 24 24"><path d="M23.948.042A17.934 17.934 0 0 0 22.734 0c-8.6 0-13.497 6.557-15.278 11.833l4.727 4.727C17.611 14.616 24 9.9 24 1.392c0-.44-.017-.89-.052-1.35zM12.671 14.22l-2.883-2.883c1.221-2.859 4.691-8.945 12.199-9.32-.251 5.775-4.041 9.932-9.316 12.203zm5.471 1.538c-.547.373-1.09.71-1.628 1.011-.187.891-.662 1.842-1.351 2.652-.002-.576-.162-1.156-.443-1.738a23.86 23.86 0 0 1-1.414.588c.66 1.709-.012 2.971-.915 4.154 1.296-.098 2.656-.732 3.728-1.805 1.155-1.155 1.967-2.823 2.023-4.862zM6.322 9.289c-.579-.28-1.158-.438-1.732-.441.803-.681 1.744-1.153 2.626-1.345.314-.552.667-1.097 1.039-1.633-2.039.055-3.708.867-4.864 2.023-1.071 1.071-1.706 2.433-1.804 3.728 1.184-.904 2.446-1.576 4.155-.914.173-.471.366-.944.58-1.418zm7.738.663a.999.999 0 1 1 1.414-1.414 1 1 0 1 1-1.414 1.414zm4.949-4.951a2 2 0 1 0-2.826 2.829 2 2 0 0 0 2.826-2.829zm-1.908 1.911a.7.7 0 0 1 .99-.99.703.703 0 0 1 0 .99.703.703 0 0 1-.99 0zm-6.747 10.65C8.862 21.372 4.551 23.77 0 24c.219-4.289 2.657-8.676 6.64-10.153l.805.806c-4.331 2.755-4.653 5.346-4.665 6.575 1.268-.015 4.054-.344 6.778-4.464l.796.798z"/></symbol><symbol id="script" viewBox="0 0 24 24"><path d="M21.155 8.64c-.909 1.519-2.327 3.067-4.097 3.004-.413.706-.852 1.677-1.339 2.803L14.407 15c.936-2.343 2.231-4.961 3.698-6.994-.67.529-1.746 1.637-2.662 2.783-1.098-1.828-.3-3.691.973-5.179.021.641.359 1.196.601 1.475-.087-.53-.114-1.489.195-2.351.718-.732 1.364-1.271 2.113-1.76-.083.478.08 1.026.262 1.361.024-.49.224-1.43.521-1.84C21.032 1.768 22.44 1.122 24 1c-.081.973-.436 2.575-1.024 3.604-.515.404-1.221.68-1.791.833a4.485 4.485 0 0 0 1.494-.001 17.144 17.144 0 0 1-.998 2.276c-.679.468-1.578.732-2.203.825.46.187 1.272.245 1.677.103zM7.314 12.445l.645.781 4.773-2.791-.668-.768-4.75 2.778zm6.96-.238l-.668-.767-4.805 2.808.645.781 4.828-2.822zm4.679.007a4.232 4.232 0 0 1-1.286.398c-.12.231-.246.494-.377.773l.298.342c.623.692.459 1.704-.376 2.239-.773.497-5.341 3.376-6.386 4.035A3.577 3.577 0 0 0 10 18.053c-.469-.557-6.115-7.376-7.523-9.178-.469-.6-.575-1.245-.295-1.816.268-.549.842-.918 1.43-.918.919 0 1.408.655 1.549 1.215.16.641-.035 1.231-.623 1.685l1.329 1.624 7.796-4.446a3.44 3.44 0 0 0 .93-4.513A3.466 3.466 0 0 0 11.615 0c-1.188 0-.793-.016-9.565 4.475C.816 5.066 0 6.262 0 7.677c0 .87.308 1.756.889 2.487 1.427 1.794 7.561 9.185 7.616 9.257.371.493.427 1.119.15 1.673a1.57 1.57 0 0 1-1.429.886c-.919 0-1.408-.655-1.549-1.216-.156-.629.012-1.208.604-1.654l-1.277-1.545c-.822.665-1.277 1.496-1.377 2.442C3.395 22.212 5.152 24 7.24 24c.596 0 1.311-.177 1.841-.51l9.427-5.946C19.465 16.88 20 15.763 20 14.647c0-.745-.24-1.454-.688-2.003l-.359-.43zM11.02 2.152c.188-.087.398-.134.609-.134.532 0 .997.281 1.243.752.312.596.226 1.469-.548 1.912L7.227 7.57a3.594 3.594 0 0 0-1.455-2.732l5.248-2.686zm2.097 13.383l.361-.905.249-.609-3.449 2.017.645.781 2.194-1.284z"/></symbol><symbol id="shopping-cart" viewBox="0 0 24 24"><path d="M10 19.5a1.5 1.5 0 1 1-3 0 1.5 1.5 0 0 1 3 0zm3.5-1.5a1.5 1.5 0 1 0 0 3 1.5 1.5 0 0 0 0-3zm1.336-5l1.977-7H0l2.938 7h11.898zm4.969-10l-3.432 12H3.776l.839 2h13.239l3.474-12h1.929L24 3h-4.195z"/></symbol><symbol id="target" viewBox="0 0 24 24"><path d="M6 12c0 2.206 1.794 4 4 4 1.761 0 3.242-1.151 3.775-2.734l2.224-1.291L16 12a6 6 0 1 1-6-6 5.97 5.97 0 0 1 2.975.794l-2.21 1.283A4.017 4.017 0 0 0 10 8c-2.206 0-4 1.794-4 4zm4-2a2 2 0 1 0 2 2l-.002-.015 3.36-1.95c.976-.565 2.704-.336 3.711.159L24 7.331l-3.158-1.569.169-3.632L16.066 5c-.07 1.121-.734 2.736-1.705 3.301l-3.383 1.964A1.99 1.99 0 0 0 10 10zm7.995 1.911L18 12c0 4.411-3.589 8-8 8s-8-3.589-8-8 3.589-8 8-8c1.475 0 2.853.408 4.041 1.107.334-.586.428-1.544.146-2.18A9.953 9.953 0 0 0 10 2C4.477 2 0 6.477 0 12s4.477 10 10 10c5.233 0 9.521-4.021 9.957-9.142-.301-.483-1.066-1.061-1.962-.947z"/></symbol><symbol id="time" viewBox="0 0 24 24"><path d="M21.854 13.683l1.998.159a11.942 11.942 0 0 1-.652 2.46l-1.8-.905c.2-.551.353-1.123.454-1.714zm-2.548 7.826l-1.413-1.443a9.946 9.946 0 0 1-1.555.933l.669 1.899a11.93 11.93 0 0 0 2.299-1.389zm1.226-4.309a10.091 10.091 0 0 1-1.149 1.528l1.404 1.433a12.038 12.038 0 0 0 1.539-2.058l-1.794-.903zM0 12c0 6.627 5.375 12 12.004 12a11.98 11.98 0 0 0 3.12-.424l-.665-1.894c-.787.2-1.607.318-2.455.318-5.516 0-10.003-4.486-10.003-10S6.488 2 12.004 2c2.235 0 4.293.744 5.959 1.989l-2.05 2.049 7.015 1.354L21.573.379l-2.184 2.183A11.919 11.919 0 0 0 12.004 0C5.375 0 0 5.373 0 12zm23.773-2.359h-2.076c.163.661.261 1.344.288 2.047l2.015.161a12.144 12.144 0 0 0-.227-2.208zM14.768 15v-1.419h-2.594v-1.295l2.722-3.653h1.288v3.689H17v1.259h-.815V15h-1.417zm0-2.679v-1.695l-1.263 1.695h1.263zM7 15c0-.961.275-1.709 1.234-2.419 1.129-.836 1.99-1.165 1.99-1.939 0-.512-.308-.83-.804-.83-.69 0-.855.723-.855 1.411H7.144c-.06-1.782.951-2.713 2.338-2.713 1.287 0 2.22.856 2.22 2.036 0 .589-.183 1.056-.576 1.469-.621.655-1.552.985-2.163 1.682h2.774V15H7z"/></symbol><symbol id="tools" viewBox="0 0 24 24"><path d="M4.104 0L0 4.152l18.888 18.799L24 24l-.961-5.203L4.104 0zM20.05 21.502a.426.426 0 0 1-.602 0L2.186 4.378a.426.426 0 1 1 .602-.603L20.05 20.901a.424.424 0 0 1 0 .601zm1.544-2.132a.427.427 0 0 1-.602.603L3.729 2.847a.426.426 0 0 1 .601-.602L21.594 19.37zM18.739 5.303a.5.5 0 1 1 .708-.707.5.5 0 0 1-.708.707zm-7.734 12.641L4.95 24 0 19.092l6.059-6.059 1.419 1.41-.407.407.707.707-.707.707-.707-.707-.707.707.707.707-.707.707-.707-.707-.707.707.707.707-.707.707-.707-.707-.707.708 2.121 2.121 4.657-4.657 1.398 1.387zM13.04 6.052L19.092 0 24 4.95l-6.013 6.014-1.398-1.388 4.625-4.625-2.121-2.121-2.121 2.12.707.707-.708.708-.707-.707-.707.707.707.707-.707.707-.707-.708-.39.39-1.42-1.409z"/></symbol><symbol id="vk" viewBox="0 0 24 24"><path class="st0" d="M13.162 18.994c.609 0 .858-.406.851-.915-.031-1.917.714-2.949 2.059-1.604 1.488 1.488 1.796 2.519 3.603 2.519h3.2c.808 0 1.126-.26 1.126-.668 0-.863-1.421-2.386-2.625-3.504-1.686-1.565-1.765-1.602-.313-3.486C22.864 8.997 25.22 6 23.136 6h-3.981c-.772 0-.828.435-1.103 1.083-.995 2.347-2.886 5.387-3.604 4.922-.751-.485-.407-2.406-.35-5.261.015-.754.011-1.271-1.141-1.539A8.07 8.07 0 0 0 11.148 5c-2.273 0-3.841.953-2.95 1.119 1.571.293 1.42 3.692 1.054 5.16-.638 2.556-3.036-2.024-4.035-4.305C4.976 6.426 4.902 6 4.042 6H.787C.295 6 0 6.16 0 6.516c0 .602 2.96 6.72 5.786 9.77 2.756 2.975 5.48 2.708 7.376 2.708z"/></symbol></svg>